<svg xmlns="http://www.w3.org/2000/svg" width="512" height="512" viewBox="0 0 512 512" version="1.1">
	<path d="M 0 256.002 L 0 512.004 256.250 511.752 L 512.500 511.500 512.752 255.750 L 513.004 0 256.502 0 L 0 0 0 256.002 M 0.492 256.500 C 0.492 397.300, 0.608 454.751, 0.750 384.170 C 0.892 313.588, 0.892 198.388, 0.750 128.170 C 0.608 57.951, 0.492 115.700, 0.492 256.500 M 235 47.590 C 233.075 47.816, 227.225 48.465, 222 49.033 C 177.395 53.877, 128.851 74.054, 94.343 102.092 C 83.665 110.768, 68.793 125.843, 60.752 136.141 C 53.802 145.041, 41.461 164.663, 38.503 171.515 C 35.939 177.456, 30.047 196.791, 29.385 201.439 C 29.066 203.672, 28.654 206.512, 28.469 207.750 C 28.148 209.898, 29.973 210.736, 33.469 210.045 C 34.003 209.940, 35.689 209.818, 37.217 209.775 C 40.296 209.687, 43.188 206.501, 46.996 199 C 50.501 192.098, 63.568 172.322, 69.794 164.500 C 106.797 118.006, 162.122 87.278, 224 78.852 C 236.213 77.189, 271.854 77.173, 283.500 78.826 C 328.663 85.234, 364.442 99.879, 399.444 126.282 C 410.524 134.641, 433.142 157.519, 441.675 169 C 445.559 174.225, 451.912 183.900, 455.793 190.500 C 467.498 210.405, 467.013 209.863, 472.930 209.633 C 475.870 209.518, 478.006 209.869, 478.015 210.467 C 478.024 211.035, 478.412 210.898, 478.879 210.162 C 481.157 206.568, 472.943 178.407, 465.506 164.312 C 439.616 115.242, 387.539 74.805, 328.018 57.555 C 304.391 50.707, 285.984 48.038, 259 47.549 C 247.725 47.345, 236.925 47.363, 235 47.590 M 251.956 96.149 C 251.310 98.542, 249.035 108.150, 246.901 117.500 C 241.875 139.521, 241.293 141.512, 239.436 143.053 C 236.959 145.109, 233.781 143.191, 226.920 135.500 C 214.558 121.643, 200.710 106.957, 200.348 107.319 C 199.918 107.748, 207.214 133.533, 213.179 152.668 L 217.284 165.836 224.550 169.427 C 233.634 173.917, 240.635 181.315, 245.498 191.564 C 249.138 199.233, 249.503 199.600, 251.946 198.054 C 252.823 197.500, 254.075 197.505, 255.127 198.068 C 256.600 198.856, 257.425 197.826, 260.589 191.248 C 263.179 185.864, 266.174 181.655, 270.408 177.451 C 276.020 171.878, 283.955 167, 287.407 167 C 288.977 167, 291.579 159.649, 300.324 130.500 C 306.308 110.551, 307.254 107, 306.578 107 C 306.325 107, 298.403 115.325, 288.973 125.500 C 271.669 144.172, 269.037 146.159, 266.175 142.711 C 265.587 142.002, 262.557 130.414, 259.443 116.961 C 256.329 103.507, 253.635 92.342, 253.456 92.149 C 253.278 91.956, 252.603 93.756, 251.956 96.149 M 260.210 164.566 C 257.302 166.602, 255 174.865, 255 183.265 C 255 191.971, 256.285 191.837, 260.924 182.644 C 266.616 171.364, 266.183 160.382, 260.210 164.566 M 241.487 166.040 C 241.111 167.227, 241.098 170.170, 241.460 172.582 C 242.284 178.075, 248.766 191.263, 250.204 190.374 C 252.046 189.235, 250.599 171.712, 248.343 167.839 C 246 163.815, 242.486 162.894, 241.487 166.040 M 196.179 178.030 C 181.654 185.300, 178.456 192.755, 186.118 201.482 L 189.207 205 186.118 208.518 C 180.704 214.685, 180.772 219.972, 186.338 225.538 L 189.557 228.757 186.288 232.071 C 170.138 248.441, 204.789 265.987, 253.289 265.997 C 269.320 266.001, 282.596 264.545, 294.829 261.442 C 321.396 254.702, 332.294 242.796, 321.712 232.071 L 318.443 228.757 321.662 225.538 C 327.228 219.972, 327.296 214.685, 321.882 208.518 L 318.793 205 321.882 201.482 C 327.502 195.081, 327.236 189.817, 320.992 183.878 C 317.692 180.739, 307.621 175, 305.412 175 C 305.020 175, 306.491 176.298, 308.680 177.883 C 313.260 181.201, 315.530 185.752, 314.551 189.653 C 313.763 192.792, 307.113 199.257, 305.363 198.586 C 304.704 198.333, 303.928 198.746, 303.637 199.502 C 302.886 201.459, 288.267 205.855, 276.500 207.662 C 263.146 209.712, 236.150 208.926, 224 206.133 C 213.371 203.689, 203.795 200.140, 204.547 198.924 C 204.861 198.416, 204.157 198, 202.982 198 C 200.269 198, 195.313 193.095, 194.416 189.523 C 193.379 185.389, 196.256 180.428, 201.688 176.983 C 208.322 172.776, 205.670 173.280, 196.179 178.030 M 194 210.890 C 194 213.064, 195.107 215.219, 197.694 218.083 C 200.897 221.628, 201.795 222.094, 204.444 221.588 C 206.673 221.161, 207.094 221.273, 206 222.001 C 204.667 222.889, 204.667 223.112, 206 224.004 C 208.492 225.671, 222.018 229.684, 230 231.124 C 241.969 233.284, 271.284 232.813, 283 230.273 C 293.623 227.969, 304 224.340, 304 222.928 C 304 222.418, 304.848 222, 305.884 222 C 308.888 222, 315.179 214.375, 314.810 211.181 C 314.442 207.996, 313.872 208.006, 304.500 211.354 C 273.488 222.431, 225.985 221.193, 195.750 208.520 C 194.302 207.912, 194 208.321, 194 210.890 M 308.300 233.702 C 300.494 237.282, 283.185 240.817, 267.750 241.985 C 244.542 243.740, 216.786 240.558, 201.578 234.399 C 198.320 233.079, 195.283 232, 194.828 232 C 192.951 232, 194.148 238.022, 196.605 240.943 C 204.679 250.537, 226.465 256.251, 255 256.258 C 275.221 256.263, 293.376 252.988, 304.237 247.376 C 311.606 243.569, 316.528 236.405, 314.321 232.697 C 313.647 231.565, 312.566 231.746, 308.300 233.702 M 299.768 308.691 L 299.500 333.500 292.435 319 C 288.549 311.025, 284.062 301.462, 282.462 297.750 L 279.555 291 273.777 291 C 270.600 291, 268 291.428, 268 291.951 C 268 292.950, 258.788 313.297, 252.623 325.915 C 250.630 329.994, 249 333.481, 249 333.665 C 249 333.849, 251.363 333.999, 254.250 333.998 C 259.364 333.996, 259.505 333.919, 259.709 331.009 C 260.177 324.314, 260.821 324, 274.086 324 L 286.102 324 287.613 327.617 C 288.444 329.606, 288.886 331.856, 288.594 332.617 C 288.164 333.737, 289.955 334, 298.031 334 C 303.514 334, 308 333.603, 308 333.117 C 308 332.631, 309.913 332.900, 312.250 333.713 C 317.376 335.497, 324.849 334.856, 329.311 332.250 C 334.232 329.376, 336.500 324.565, 336.500 317 C 336.500 309.248, 333.857 304.109, 328.583 301.606 C 324.387 299.615, 314.452 299.516, 310.786 301.428 L 308.073 302.844 307.786 293.672 L 307.500 284.500 303.768 284.191 L 300.035 283.881 299.768 308.691 M 83.500 290.868 C 71.147 294.151, 65.236 304.413, 67.789 318.143 C 69.112 325.255, 72.323 329.943, 77.694 332.606 C 82.791 335.133, 96.049 335.173, 100.750 332.675 C 103.575 331.174, 104 331.148, 104 332.474 C 104 333.603, 105.107 334, 108.250 334 L 112.500 334 112.500 322.500 L 112.500 311 101.859 311 L 91.219 311 90.828 314.351 L 90.436 317.702 97.218 317.216 L 104 316.731 104 320.366 C 104 325.098, 101.368 327.672, 95.653 328.529 C 85.225 330.093, 78.254 326.372, 76.012 318.045 C 73.696 309.442, 77.120 300.602, 83.966 297.515 C 88.766 295.351, 101.197 295.802, 107.327 298.363 C 110.994 299.896, 111.100 299.883, 110.559 297.974 C 110.252 296.888, 109.758 295.142, 109.462 294.092 C 109.166 293.043, 108.153 291.879, 107.212 291.505 C 104.559 290.451, 86.859 289.976, 83.500 290.868 M 221 293.845 C 221 297.144, 218.295 300, 215.171 300 C 213.522 300, 213 300.601, 213 302.500 C 213 304.611, 213.467 305, 216 305 L 219 305 219 316.453 C 219 322.939, 219.498 328.998, 220.147 330.424 C 221.582 333.573, 226.882 335.432, 231.797 334.510 C 237.462 333.447, 239 332.264, 239 328.965 C 239 326.011, 237.709 325.043, 236.462 327.062 C 235.271 328.988, 230.997 330.069, 228.935 328.965 C 227.195 328.034, 227 326.777, 227 316.465 L 227 305 233 305 C 236.300 305, 239 304.587, 239 304.082 C 239 303.577, 239.273 302.452, 239.607 301.582 C 240.123 300.238, 239.221 300, 233.607 300 L 227 300 227 295.500 C 227 291.167, 226.889 291, 224 291 C 221.370 291, 221 291.351, 221 293.845 M 272.632 299.744 C 271.710 301.527, 269.416 306.364, 267.535 310.493 L 264.114 318 274.015 318 L 283.916 318 280.849 311.250 C 279.162 307.538, 277 302.700, 276.045 300.501 L 274.309 296.502 272.632 299.744 M 119 300.692 L 116.500 301.085 116.500 317.542 L 116.500 334 120.500 333.999 L 124.500 333.997 124.500 321.911 C 124.500 309.845, 124.505 309.820, 127.368 307.359 C 130.486 304.678, 134.004 304.781, 139.028 307.700 C 141.410 309.084, 141.534 309.562, 141.172 315.960 C 140.511 327.662, 144.837 333.211, 155.678 334.565 C 161.077 335.240, 173.577 333.494, 174.543 331.930 C 174.828 331.469, 174.777 329.958, 174.429 328.573 C 173.811 326.111, 173.728 326.089, 170.756 327.626 C 166.805 329.669, 157.033 329.891, 153.531 328.017 C 150.741 326.524, 148 322.304, 148 319.502 C 148 318.109, 149.765 317.921, 161.750 318.038 L 175.500 318.172 175.248 313.486 C 174.715 303.601, 169.375 299.560, 157.627 300.154 C 152.165 300.430, 149.730 301.056, 147.246 302.825 C 144.668 304.660, 144 304.821, 144 303.603 C 144 299.602, 131.894 298.515, 126.904 302.068 L 124 304.136 124 302.068 C 124 300.931, 123.438 300.067, 122.750 300.150 C 122.063 300.232, 120.375 300.476, 119 300.692 M 181.665 301.223 C 178.424 302.082, 177.918 302.569, 178.401 304.370 C 178.715 305.541, 178.979 307.040, 178.986 307.701 C 178.996 308.524, 180.340 308.294, 183.250 306.973 C 187.907 304.859, 197.867 304.323, 201.030 306.016 C 202.770 306.947, 205.869 314.465, 204.909 315.424 C 204.683 315.651, 202.023 315.174, 198.999 314.365 C 189.683 311.873, 180.086 313.999, 177.425 319.145 C 171.524 330.556, 184.202 338.492, 199.750 333.121 C 203.919 331.681, 205 331.585, 205 332.654 C 205 333.543, 206.274 334, 208.750 334.001 L 212.500 334.003 212.171 321.751 C 211.991 315.013, 211.316 308.392, 210.671 307.037 C 210.027 305.683, 207.971 303.545, 206.102 302.287 C 203.176 300.318, 201.510 300.014, 194.102 300.103 C 189.371 300.160, 183.774 300.664, 181.665 301.223 M 334.039 303.342 C 338.204 310.401, 348.066 334.560, 347.574 336.500 C 347.296 337.600, 345.670 340.188, 343.961 342.250 C 341.354 345.397, 340.235 346, 337 346 C 334.020 346, 332.672 345.398, 331.059 343.347 C 329.911 341.888, 328.805 340.876, 328.600 341.097 C 328.396 341.319, 327.921 343.360, 327.546 345.634 L 326.863 349.768 331.812 350.955 C 338.441 352.545, 343.887 351.046, 348.413 346.387 C 350.616 344.118, 354.124 337.744, 358.163 328.672 C 361.633 320.877, 366.086 311.238, 368.058 307.250 L 371.644 300 366.822 300 C 363.626 300, 362.003 300.421, 362.010 301.250 C 362.022 302.850, 352.666 325.972, 352 325.988 C 351.245 326.005, 342.973 303.761, 342.988 301.750 C 342.998 300.295, 342.078 300, 337.534 300 L 332.067 300 334.039 303.342 M 374.775 301.559 C 371.495 303.339, 370 305.891, 370 309.712 C 370 315.842, 375.264 318.845, 389 320.548 C 396.051 321.423, 398 322.494, 398 325.497 C 398 327.500, 397.269 328.120, 393.805 329.052 C 388.691 330.430, 380.075 329.518, 374.290 326.989 L 370.080 325.148 370.672 328.324 C 371.488 332.697, 371.803 332.914, 379.078 334.120 C 391.035 336.101, 403.046 333.580, 404.573 328.769 C 405.334 326.371, 407 327.520, 407 330.442 C 407 333.206, 408.470 333.712, 419.114 334.617 C 428.246 335.394, 435.873 333.828, 438.959 330.543 C 440.628 328.767, 441.054 327.254, 440.813 323.968 C 440.402 318.365, 437.480 316.207, 428.433 314.823 C 417.676 313.177, 413.567 311.764, 413.150 309.566 C 412.948 308.502, 413.592 307.040, 414.582 306.316 C 417.023 304.532, 428.465 304.631, 434.591 306.489 C 437.291 307.308, 439.556 307.983, 439.624 307.989 C 439.692 307.995, 439.453 306.563, 439.094 304.806 C 438.236 300.608, 434.829 299.725, 421.195 300.165 C 411.203 300.488, 410.733 300.605, 408.360 303.366 C 406.442 305.597, 405.963 307.141, 406.198 310.333 C 406.612 315.961, 410.366 318.385, 421.099 319.954 C 431.387 321.458, 434 322.451, 434 324.853 C 434 328.348, 431.187 329.510, 423.094 329.354 C 412.628 329.153, 408.026 327.342, 405.462 322.415 C 402.886 317.466, 398.787 315.441, 388.504 314.041 C 382.999 313.291, 379.902 312.347, 378.567 311.011 C 376.680 309.124, 376.677 309.014, 378.468 307.035 C 379.997 305.346, 381.538 305, 387.529 305 C 391.500 305, 396.675 305.680, 399.030 306.511 C 401.385 307.342, 403.514 307.820, 403.760 307.573 C 404.933 306.400, 402.122 301.491, 399.926 300.877 C 395.106 299.530, 377.641 300.004, 374.775 301.559 M 151.455 307.455 C 146.801 312.108, 147.934 313, 158.500 313 C 167.031 313, 168 312.814, 168 311.174 C 168 305.248, 156.293 302.616, 151.455 307.455 M 312.229 305.669 C 308.291 307.254, 306.587 319.366, 309.507 325.013 C 311.426 328.724, 316.913 330.415, 322.252 328.941 C 327.327 327.540, 329 324.755, 329 317.712 C 329 311.714, 327.872 308.421, 325.087 306.282 C 323.528 305.085, 314.723 304.666, 312.229 305.669 M 184.655 320.829 C 180.725 325.171, 184.352 329.238, 192.256 329.353 C 202.084 329.495, 207.969 324.823, 203.016 320.812 C 199.792 318.201, 187.022 318.213, 184.655 320.829 M 14 342.481 C 14 343.296, 16.948 347.087, 20.551 350.907 C 48.717 380.764, 115.523 402.229, 205 410.170 C 226.969 412.120, 289.906 411.819, 312.965 409.654 C 384.435 402.944, 440.587 387.338, 475.588 364.457 C 482.885 359.687, 497.702 345.129, 497.682 342.750 C 497.669 341.235, 496.625 341, 489.907 341 C 482.290 341, 482.011 341.090, 474.749 345.899 C 466.236 351.536, 454.732 357.499, 447.500 360.023 C 444.750 360.983, 438.262 363.645, 433.082 365.939 C 363.562 396.720, 249.452 406.454, 152 389.916 C 120.561 384.580, 88.912 375.669, 67 365.983 C 61.775 363.673, 54.800 360.772, 51.500 359.535 C 43.045 356.368, 35.798 352.597, 26.216 346.377 C 17.890 340.973, 14 339.733, 14 342.481" stroke="none" fill="black" fill-rule="evenodd"/>
</svg>